<svg xmlns="http://www.w3.org/2000/svg" viewBox="144.82 -36.15 1167.14 1199.33" width="1167" height="1199"><rect width="100%" height="100%" fill="#ffffff"/><defs><marker id="arrow-end-0" markerWidth="10" markerHeight="7" refX="10" refY="3.5" orient="auto"><polygon points="0 0, 10 3.5, 0 7" fill="rgba(240,140,0,1.00)"/></marker><marker id="arrow-end-1" markerWidth="10" markerHeight="7" refX="10" refY="3.5" orient="auto"><polygon points="0 0, 10 3.5, 0 7" fill="rgba(240,140,0,1.00)"/></marker><marker id="arrow-end-2" markerWidth="10" markerHeight="7" refX="10" refY="3.5" orient="auto"><polygon points="0 0, 10 3.5, 0 7" fill="rgba(240,140,0,1.00)"/></marker><marker id="arrow-end-3" markerWidth="10" markerHeight="7" refX="10" refY="3.5" orient="auto"><polygon points="0 0, 10 3.5, 0 7" fill="rgba(240,140,0,1.00)"/></marker><marker id="arrow-end-4" markerWidth="10" markerHeight="7" refX="10" refY="3.5" orient="auto"><polygon points="0 0, 10 3.5, 0 7" fill="rgba(240,140,0,1.00)"/></marker><marker id="arrow-end-5" markerWidth="10" markerHeight="7" refX="10" refY="3.5" orient="auto"><polygon points="0 0, 10 3.5, 0 7" fill="rgba(240,140,0,1.00)"/></marker></defs>
  <ellipse cx="783.76" cy="53.85" rx="100.00" ry="50.00" fill="rgba(255,201,201,0.60)" stroke="rgba(240,140,0,1.00)" stroke-width="2" />
  <rect x="472.6013544542129" y="230.1212541393897" width="400" height="120" rx="8" fill="rgba(255,201,201,0.36)" stroke="rgba(240,140,0,0.60)" stroke-width="2" />
  <rect x="820.2558704071271" y="439.4811220871198" width="400" height="160" rx="8" fill="rgba(255,201,201,0.36)" stroke="rgba(240,140,0,0.60)" stroke-width="2" />
  <rect x="184.8237474678926" y="456.31458468336547" width="350" height="120" rx="8" fill="rgba(255,201,201,0.36)" stroke="rgba(240,140,0,0.60)" stroke-width="2" />
  <rect x="203.13008653811812" y="742.113448615441" width="400" height="120" rx="8" fill="rgba(255,201,201,0.36)" stroke="rgba(240,140,0,0.60)" stroke-width="2" />
  <rect x="871.9620132868666" y="743.2999673441063" width="400" height="120" rx="8" fill="rgba(255,201,201,0.36)" stroke="rgba(240,140,0,0.60)" stroke-width="2" />
  <rect x="351.274217661736" y="1023.1857227412581" width="600" height="100" rx="8" fill="rgba(255,201,201,0.36)" stroke="rgba(240,140,0,0.60)" stroke-width="2" />
  <line x1="758.75" y1="107.27" x2="709.21" y2="212.48" stroke="rgba(240,140,0,1.00)" stroke-width="2"  marker-end="url(#arrow-end-0)" />
  <line x1="768.54" y1="353.28" x2="879.94" y2="426.73" stroke="rgba(240,140,0,1.00)" stroke-width="2"  marker-end="url(#arrow-end-1)" />
  <line x1="811.06" y1="548.10" x2="555.52" y2="541.17" stroke="rgba(240,140,0,1.00)" stroke-width="2"  marker-end="url(#arrow-end-2)" />
  <line x1="393.98" y1="741.82" x2="371.35" y2="592.46" stroke="rgba(240,140,0,1.00)" stroke-width="2"  marker-end="url(#arrow-end-3)" />
  <line x1="612.62" y1="802.60" x2="846.48" y2="803.00" stroke="rgba(240,140,0,1.00)" stroke-width="2"  marker-end="url(#arrow-end-4)" />
  <line x1="973.59" y1="866.46" x2="745.68" y2="1012.65" stroke="rgba(240,140,0,1.00)" stroke-width="2"  marker-end="url(#arrow-end-5)" />
  <text font-family="sans-serif" font-size="16" fill="rgba(240,140,0,1.00)" text-anchor="middle"><tspan x="783.55" y="60.00">Users/Apps</tspan></text>
  <text font-family="sans-serif" font-size="16" fill="rgba(240,140,0,1.00)" text-anchor="middle"><tspan x="672.60" y="266.12">OpenIG 6.0.2</tspan><tspan x="672.60" y="286.12"></tspan><tspan x="672.60" y="306.12">Identity Gateway</tspan><tspan x="672.60" y="326.12">(reverse proxy, policy enforcement)</tspan></text>
  <text font-family="sans-serif" font-size="16" fill="rgba(240,140,0,1.00)" text-anchor="middle"><tspan x="1020.26" y="485.48">OpenAM 16.0.5</tspan><tspan x="1020.26" y="505.48"></tspan><tspan x="1020.26" y="525.48">Access Management</tspan><tspan x="1020.26" y="545.48">(SSO, AuthN, AuthZ, Federation)</tspan><tspan x="1020.26" y="565.48">34+ auth modules, OAuth2/OIDC, SAML 2.0</tspan></text>
  <text font-family="sans-serif" font-size="16" fill="rgba(240,140,0,1.00)" text-anchor="middle"><tspan x="359.82" y="492.31">OpenDJ 5.0.3</tspan><tspan x="359.82" y="512.31"></tspan><tspan x="359.82" y="532.31">LDAPv3 Directory Server</tspan><tspan x="359.82" y="552.31">(identity store)</tspan></text>
  <text font-family="sans-serif" font-size="16" fill="rgba(240,140,0,1.00)" text-anchor="middle"><tspan x="403.13" y="778.11">OpenIDM 7.0.2</tspan><tspan x="403.13" y="798.11"></tspan><tspan x="403.13" y="818.11">Identity Lifecycle Management</tspan><tspan x="403.13" y="838.11">(provisioning, sync, joiner/mover/leaver)</tspan></text>
  <text font-family="sans-serif" font-size="16" fill="rgba(240,140,0,1.00)" text-anchor="middle"><tspan x="1071.96" y="779.30">OpenICF 2.0.2</tspan><tspan x="1071.96" y="799.30"></tspan><tspan x="1071.96" y="819.30">Connector Framework</tspan><tspan x="1071.96" y="839.30">(LDAP, DB, CSV, SSH connectors)</tspan></text>
  <text font-family="sans-serif" font-size="16" fill="rgba(240,140,0,1.00)" text-anchor="middle"><tspan x="651.27" y="1059.19">External Systems</tspan><tspan x="651.27" y="1079.19"></tspan><tspan x="651.27" y="1099.19">Active Directory, Oracle HR, SAP, databases, CSV files</tspan></text>
  <text font-family="sans-serif" font-size="16" fill="rgba(240,140,0,1.00)" text-anchor="middle"><tspan x="800.00" y="188.50">HTTP requests</tspan></text>
  <text font-family="sans-serif" font-size="16" fill="rgba(240,140,0,1.00)" text-anchor="middle"><tspan x="800.00" y="376.00">Policy enforcement,</tspan><tspan x="800.00" y="396.00">SSO delegation</tspan></text>
  <text font-family="sans-serif" font-size="16" fill="rgba(240,140,0,1.00)" text-anchor="middle"><tspan x="568.90" y="598.50">LDAP bind, user lookup,</tspan><tspan x="568.90" y="618.50">session store</tspan></text>
  <text font-family="sans-serif" font-size="16" fill="rgba(240,140,0,1.00)" text-anchor="middle"><tspan x="625.00" y="696.00">Identity sync,</tspan><tspan x="625.00" y="716.00">reconciliation</tspan></text>
  <text font-family="sans-serif" font-size="16" fill="rgba(240,140,0,1.00)" text-anchor="middle"><tspan x="850.00" y="796.00">Provisioning</tspan><tspan x="850.00" y="816.00">operations (CRUD)</tspan></text>
  <text font-family="sans-serif" font-size="16" fill="rgba(240,140,0,1.00)" text-anchor="middle"><tspan x="850.00" y="996.00">LDAP, JDBC, REST,</tspan><tspan x="850.00" y="1016.00">SSH, CSV connectors</tspan></text>
</svg>